<svg id="Layer_1" data-name="Layer 1" xmlns="http://www.w3.org/2000/svg" viewBox="0 0 16 16"><path d="M7.3,8.5H1v-7H2.69v.83l-.82.06v1.7H7.05V2.38l-.79,0V1.51H8.84v.77l-.09.06C8,2.41,8,2.41,8,3.2v.88h5.27c0-.5,0-1,0-1.47A.39.39,0,0,0,13,2.37a2.85,2.85,0,0,0-.59,0V1.5h1.72c0,.17,0,.34,0,.51,0,1.65,0,3.3,0,5a1.2,1.2,0,0,0,.18.61A4,4,0,1,1,7.2,8.91C7.23,8.8,7.25,8.69,7.3,8.5Zm6.83,1.28a3.08,3.08,0,1,0-3,3.1A3.1,3.1,0,0,0,14.13,9.78ZM1.86,7.61l.47,0h5A.76.76,0,0,0,8,7.31,3.79,3.79,0,0,1,11.7,5.93a12.56,12.56,0,0,1,1.52.46V5H1.86Z"/><path d="M11.49,9.37h1.29v.85H10.65V7.66h.84Z"/></svg>