<svg id="Layer_1" data-name="Layer 1" xmlns="http://www.w3.org/2000/svg" viewBox="0 0 16 16"><defs><style>.cls-1{fill:#fff;}</style></defs><path d="M12.15,3.47V7.28l-.45,0-.22-3H3.07v8.58H7.55l.06.35a2,2,0,0,1-.68.31c-1.17,0-2.35,0-3.52,0-.83,0-1.18-.43-1.18-1.22,0-2.56,0-5.13,0-7.69,0-.4.58-1.11.91-1.12C6.17,3.44,9.16,3.47,12.15,3.47Z"/><path d="M11,14.12a2.93,2.93,0,1,1-.07-5.85A2.93,2.93,0,1,1,11,14.12Zm0-.74a2.12,2.12,0,0,0,2.17-2.11A2.11,2.11,0,0,0,11,9a2.18,2.18,0,0,0-2.21,2.1A2.24,2.24,0,0,0,11,13.38Z"/><path d="M13.19,8.07V2.64H4l0-.47A11.14,11.14,0,0,1,5.17,2c2.39,0,4.78,0,7.17,0,1.06,0,1.53.35,1.49,1.43s0,2.43,0,3.65a6,6,0,0,1-.18,1Z"/><path d="M4.8,7.1h5v.37a17.84,17.84,0,0,1-4.95,0Z"/><path d="M7.05,9.89H4.78V9.56H7Z"/><path class="cls-1" d="M11,13.38a2.24,2.24,0,0,1-2.21-2.24A2.18,2.18,0,0,1,11,9a2.11,2.11,0,0,1,2.17,2.23A2.12,2.12,0,0,1,11,13.38Zm-1.12-2.1c.38.31,1,1,1.16.9a8.38,8.38,0,0,0,1.52-1.46l-.2-.2Z"/><path d="M10.75,12l-.69-.64L9.9,11.2a.33.33,0,0,1,0-.48.32.32,0,0,1,.48,0c.15.14.28.29.43.44A.79.79,0,0,0,11,11l.7-.75a.34.34,0,0,1,.5,0,.33.33,0,0,1,0,.49c-.35.39-.71.77-1.07,1.14a.54.54,0,0,1-.18.11Z"/></svg>