<svg id="Layer_1" data-name="Layer 1" xmlns="http://www.w3.org/2000/svg" viewBox="0 0 16 16"><path d="M9.28,4.69C9.14,4.16,9,3.63,8.87,3.13c-.11-.34,0-.47.31-.55.6-.15,1.2-.3,1.79-.48.37-.11.53,0,.63.38.51,1.95,1.05,3.9,1.58,5.85.23.87.48,1.74.69,2.62a2.57,2.57,0,0,1-.06.69h.81c.26,0,.38.11.37.38s0,.63,0,1-.11.55-.53.55c-1.33,0-2.66,0-4,0-3,0-5.91,0-8.87,0-.45,0-.65-.12-.59-.59a1.81,1.81,0,0,0,0-.52c0-.47,0-.86.64-.8.13,0,.34-.28.43-.48a.91.91,0,0,0-.77-1.34c-.31,0-.38-.22-.21-.46a1.42,1.42,0,0,0,0-1.87C.93,7.22,1,7,1.31,7S1.89,7,2,6.61A1.24,1.24,0,0,0,2,5.47c-.42-.82-.42-.82.52-.82H8.42C8.68,4.65,9,4.68,9.28,4.69Zm5.22,7.46h-13V13h13ZM1.84,9.3c2,0,4.11,0,6.21,0a.9.9,0,0,0,.84-1.17c-.12-.44-.48-.67-1.07-.67H2a.8.8,0,0,0-.2,0Zm.7.48v1.85H8.63a.94.94,0,0,0,1-.92.91.91,0,0,0-.9-.92C6.65,9.77,4.56,9.78,2.54,9.78ZM2.39,7C4.6,7,6.7,7,8.8,7A.88.88,0,0,0,9.63,6a.92.92,0,0,0-.92-.89c-1.11,0-2.22,0-3.33,0h-3A1.86,1.86,0,0,1,2.39,7ZM9.94,5.29l1.07,4,1.8-.49-1.08-4Zm1.21,6.32L9.88,6.91l-.81.55A1.45,1.45,0,0,1,9.15,9.2,4.21,4.21,0,0,1,10,10.29a4,4,0,0,1,0,1.32Zm.47,0,1.79-.5-.27-.89-1.76.48Zm-2-7.68,1.8-.49-.24-.86-1.8.49Zm3.33,5.41-1.73.45c.1.44.1.46.4.38.46-.12.91-.25,1.36-.39,0,0,0,0,.07-.09ZM9.83,4.83l1.77-.49-.13-.42-1.73.47Z"/><path d="M5.44,8.15c.79,0,1.57,0,2.36,0,.14,0,.28.12.42.19-.14.09-.28.26-.42.26-1.57,0-3.15,0-4.73,0-.14,0-.28-.17-.42-.26.14-.06.28-.19.42-.19C3.86,8.14,4.65,8.15,5.44,8.15Z"/><path d="M6.1,10.93c-.77,0-1.54,0-2.31,0-.15,0-.29-.15-.43-.23.13-.07.27-.22.4-.22q2.38,0,4.77,0c.13,0,.26.16.38.24-.13.07-.26.21-.4.21C7.71,10.94,6.91,10.93,6.1,10.93Z"/><path d="M6.12,6.28c-.79,0-1.58,0-2.37,0-.14,0-.26-.15-.39-.23.13-.08.27-.22.4-.22,1.58,0,3.16,0,4.75,0,.13,0,.27.13.4.21-.14.08-.28.23-.42.24C7.7,6.29,6.91,6.28,6.12,6.28Z"/><path d="M12,8.38c0,.07-.1.22-.18.23a.31.31,0,0,1-.27-.18c-.25-.86-.48-1.73-.7-2.6,0-.08.09-.2.15-.3.09.06.25.11.27.19C11.49,6.58,11.72,7.45,12,8.38Z"/></svg>